<svg width="4096" height="4096" viewBox="0 0 4096 4096" fill="none" xmlns="http://www.w3.org/2000/svg" role="img" aria-labelledby="title desc">
  <title id="title">Huska Final Premium Icon</title>
  <desc id="desc">Refined Huska monogram app icon.</desc>

  <defs>
    <linearGradient id="bg" x1="0" y1="0" x2="4096" y2="4096" gradientUnits="userSpaceOnUse">
      <stop offset="0" stop-color="#F9F7F1"/>
      <stop offset="1" stop-color="#ECE6DA"/>
    </linearGradient>
    <linearGradient id="panel" x1="360" y1="360" x2="3736" y2="3736" gradientUnits="userSpaceOnUse">
      <stop offset="0" stop-color="#2F2E2B"/>
      <stop offset="1" stop-color="#1F1E1C"/>
    </linearGradient>
    <linearGradient id="ink" x1="1160" y1="1120" x2="2860" y2="2840" gradientUnits="userSpaceOnUse">
      <stop offset="0" stop-color="#F8F4EA"/>
      <stop offset="1" stop-color="#EDE7DA"/>
    </linearGradient>
    <filter id="shadow" x="220" y="220" width="3656" height="3656" filterUnits="userSpaceOnUse" color-interpolation-filters="sRGB">
      <feFlood flood-opacity="0" result="BackgroundImageFix"/>
      <feColorMatrix in="SourceAlpha" type="matrix" values="0 0 0 0 0 0 0 0 0 0 0 0 0 0 0 0 0 0 127 0" result="hardAlpha"/>
      <feOffset dy="36"/>
      <feGaussianBlur stdDeviation="44"/>
      <feComposite in2="hardAlpha" operator="out"/>
      <feColorMatrix type="matrix" values="0 0 0 0 0.09 0 0 0 0 0.08 0 0 0 0 0.06 0 0 0 0.30 0"/>
      <feBlend mode="normal" in2="BackgroundImageFix" result="effect1_dropShadow_1_1"/>
      <feBlend mode="normal" in="SourceGraphic" in2="effect1_dropShadow_1_1" result="shape"/>
    </filter>
  </defs>

  <rect width="4096" height="4096" rx="940" fill="url(#bg)"/>
  <rect x="12" y="12" width="4072" height="4072" rx="928" stroke="#DDD6C8" stroke-width="24"/>

  <g filter="url(#shadow)">
    <rect x="360" y="360" width="3376" height="3376" rx="860" fill="url(#panel)"/>
    <path d="M560 860C920 600 1310 500 2030 500C2730 500 3140 606 3536 870V1060C3140 780 2750 700 2030 700C1310 700 940 790 560 1088V860Z" fill="#FFFFFF" fill-opacity="0.11"/>

    <rect x="1160" y="1120" width="500" height="1900" rx="250" fill="url(#ink)"/>
    <rect x="2436" y="1120" width="500" height="1900" rx="250" fill="url(#ink)"/>
    <path d="M1660 1900C1660 1610 1894 1376 2184 1376H2436V1866H2184C2060 1866 1960 1966 1960 2090V3018H1660V1900Z" fill="url(#ink)"/>
    <path d="M2436 1900C2436 1610 2202 1376 1912 1376H1660V1866H1912C2036 1866 2136 1966 2136 2090V3018H2436V1900Z" fill="url(#ink)"/>

    <path d="M1520 2280C1520 1960 1780 1700 2100 1700H2160C2480 1700 2740 1960 2740 2280V2460C2740 2780 2480 3040 2160 3040H2100C1780 3040 1520 2780 1520 2460V2280Z" stroke="#D9CEB6" stroke-width="90"/>
  </g>
</svg>
