<svg width="4096" height="2304" viewBox="0 0 4096 2304" fill="none" xmlns="http://www.w3.org/2000/svg" role="img" aria-labelledby="title desc">
<title id="title">Huska New Concept 3</title>
<desc id="desc">Champagne premium Huska logo.</desc>
<defs>
  <linearGradient id="bg3" x1="0" y1="0" x2="4096" y2="2304" gradientUnits="userSpaceOnUse">
    <stop offset="0" stop-color="#FCFBF7"/>
    <stop offset="1" stop-color="#EFE7DB"/>
  </linearGradient>
  <linearGradient id="panel3" x1="300" y1="300" x2="1560" y2="1560" gradientUnits="userSpaceOnUse">
    <stop offset="0" stop-color="#352F2A"/>
    <stop offset="1" stop-color="#241F1A"/>
  </linearGradient>
  <linearGradient id="acc3" x1="640" y1="720" x2="1240" y2="1280" gradientUnits="userSpaceOnUse">
    <stop offset="0" stop-color="#E7D9BE"/>
    <stop offset="1" stop-color="#CBB78F"/>
  </linearGradient>
</defs>
<rect width="4096" height="2304" rx="120" fill="url(#bg3)"/>
<rect x="300" y="300" width="1260" height="1260" rx="330" fill="url(#panel3)"/>
<path d="M450 540C620 420 790 374 1090 374C1310 374 1450 420 1560 498V594C1392 512 1260 488 1090 488C810 488 636 548 450 706V540Z" fill="#FFFFFF" fill-opacity="0.11"/>
<rect x="620" y="610" width="190" height="700" rx="95" fill="#F7F2E8"/>
<rect x="1050" y="610" width="190" height="700" rx="95" fill="#F7F2E8"/>
<rect x="810" y="860" width="250" height="190" rx="95" fill="#F7F2E8"/>
<text x="1778" y="1062" fill="#2E2924" font-family="'DM Serif Display', Georgia, serif" font-size="516" font-weight="400" letter-spacing="-6">Huska</text>
<text x="1790" y="1310" fill="#675D50" font-family="Avenir Next, SF Pro Text, sans-serif" font-size="112" font-weight="500" letter-spacing="12">CALM CO-PARENTING</text>
</svg>
