<svg width="4096" height="2304" viewBox="0 0 4096 2304" fill="none" xmlns="http://www.w3.org/2000/svg">
  <defs>
    <linearGradient id="bg" x1="0" y1="0" x2="4096" y2="2304" gradientUnits="userSpaceOnUse">
      <stop offset="0" stop-color="#FAF8F3"/>
      <stop offset="1" stop-color="#EDE7DB"/>
    </linearGradient>
    <linearGradient id="mark" x1="420" y1="360" x2="1330" y2="1290" gradientUnits="userSpaceOnUse">
      <stop offset="0" stop-color="#2F2F2F"/>
      <stop offset="1" stop-color="#1F1F1F"/>
    </linearGradient>
  </defs>

  <rect width="4096" height="2304" rx="120" fill="url(#bg)"/>

  <g transform="translate(300 340)">
    <rect x="0" y="0" width="1180" height="1180" rx="300" fill="#F3EEE2"/>
    <rect x="0" y="0" width="1180" height="1180" rx="300" stroke="#D9D1C2" stroke-width="8"/>

    <path d="M250 780C250 535 448 336 693 336C938 336 1136 535 1136 780V900H980V784C980 625 852 496 693 496C535 496 406 625 406 784V900H250V780Z" fill="url(#mark)"/>
    <rect x="250" y="860" width="156" height="220" rx="78" fill="url(#mark)"/>
    <rect x="980" y="860" width="156" height="220" rx="78" fill="url(#mark)"/>

    <path d="M468 828C468 705 568 605 691 605H694C817 605 917 705 917 828V1064H768V842C768 802 735 769 694 769H691C651 769 618 802 618 842V1064H468V828Z" fill="#F3EEE2"/>
  </g>

  <text x="1710" y="1138" fill="#2F2F2F" font-family="'Sora','Avenir Next',sans-serif" font-size="470" font-weight="600" letter-spacing="-8">Huska</text>
  <text x="1718" y="1368" fill="#5D574C" font-family="'Avenir Next',sans-serif" font-size="102" font-weight="500" letter-spacing="12">CO-PARENTING</text>
</svg>
